<svg width="286" height="289" viewBox="0 0 286 289" fill="none" xmlns="http://www.w3.org/2000/svg">
<g clip-path="url(#clip0_13_2)">
<path d="M5.67794 48.236C8.06648 49.198 26.3254 49.9529 56.0565 50.3125C84.1877 50.6528 102.58 51.4083 102.572 52.0752C102.553 53.6751 81.538 71.2882 75.36 74.9478C72.9424 76.3846 65.9757 79.1005 59.9504 81.1618C40.0045 87.587 29.9198 94.5326 20.5543 108.153C12.135 120.719 16.774 123.042 27.0468 111.566C30.6982 107.343 36.0925 102.341 38.9164 100.375C43.7548 97.2331 67.3116 89.9175 68.6288 91.2675C70.0791 92.6182 65.6322 107.498 59.7299 121.428C51.773 139.867 51.2107 142.26 53.8771 142.293C57.0769 142.331 67.6632 126.991 75.3245 110.95C85.8549 89.2087 93.9769 79.1732 114.447 62.4856C126.836 52.3687 135.297 47.4037 136.876 49.1559C137.404 49.6963 137.849 56.9022 137.751 65.0346C137.483 87.166 135.978 90.3481 117.074 109.855C97.7654 129.756 92.0432 139.821 90.9132 156.075C90.116 166.866 91.2691 170.747 95.2688 170.795C96.602 170.811 97.1611 168.685 97.2369 162.418C97.3804 150.553 102.977 139.82 115.658 127.705C125.237 118.487 134.243 112.596 135.954 114.35C136.481 114.89 136.799 121.694 136.436 129.69C136.141 143.021 136.387 144.757 140.768 157.345C148.883 180.911 149.246 183.982 145.395 204.737L144.256 210.724L147.354 208.095C148.972 206.647 151.682 203.08 153.318 200.166C157.683 192.085 157.507 173.548 152.899 157.625C150.464 149.461 149.477 142.915 149.558 136.249C149.704 124.117 150.658 122.395 156.362 124.864C168.301 129.942 188.896 146.993 192.93 155.309C194.104 157.456 196.301 163.217 197.844 167.902C199.386 172.721 201.336 176.879 202.133 177.155C204.921 178.122 205.41 170.794 203.383 161.969C199.449 145.52 194.994 138.932 177.442 123.919C161.473 110.258 158.736 105.024 156.846 84.867C155.417 70.7157 156.567 52.8613 158.699 52.8871C159.366 52.8952 164.521 56.6908 170.197 61.4268C197.924 84.1638 204.233 91.7077 211.343 110.195C217.807 127.074 220.939 132.712 227.398 138.791C232.542 143.52 238.232 147.189 240.898 147.222C242.764 147.244 240.973 140.955 237.699 136.115C229.711 124.018 219.501 97.2258 221.289 92.7141C222.112 90.8569 223.979 90.7465 235.569 91.6867C250.356 92.7986 260.32 95.8524 269.844 102.235C273.285 104.41 276.862 106.32 277.662 106.33C280.595 106.365 279.31 102.35 274.575 96.9589C267.866 89.4102 253.152 82.1647 240.773 80.4148C215.749 76.6459 209.647 74.0379 193.285 59.839L183.387 51.3186L187.398 50.4341C189.538 49.9269 204.216 49.0374 219.958 48.4277C254.245 46.9753 263.852 46.4255 278.004 44.9965C283.88 44.2676 289.086 43.7965 289.619 43.8029C292.419 43.8368 290.184 41.1436 286.333 39.8969C269.73 34.4957 258.542 33.4263 213.478 32.8812C162.549 32.2652 163.347 32.4089 159.878 21.5661L156.351 15.523L189.149 15.9197L220.347 16.2971L220.895 -29.0336L221.443 -74.3633L208.111 -74.5246L194.778 -74.6858L194.414 -44.555C194.088 -17.623 193.785 -14.5605 191.926 -15.249C190.731 -15.6635 182.336 -16.165 173.27 -16.2747L156.738 -16.4747L157.045 -41.8068L157.351 -67.138L144.019 -67.2992L130.686 -67.4605L130.376 -41.8624L130.065 -16.1313L115.535 -16.44C107.67 -16.6682 100.476 -17.1552 99.549 -17.7005C98.4904 -18.3793 98.1985 -27.3175 98.4324 -46.6491L98.7694 -74.514L85.4371 -74.6753L72.1047 -74.8366L71.5644 -30.1728L71.0242 14.4909L101.822 14.8634L129.686 15.2005L131.651 18.1574C127.491 31.3081 114.379 35.0168 74.1154 34.5298C44.2509 34.1685 13.1268 38.7254 5.32471 44.3644L1.961 46.8579L5.67794 48.236Z" fill="white"/>
</g>
<defs>
<clipPath id="clip0_13_2">
<rect width="286" height="289" fill="white"/>
</clipPath>
</defs>
</svg>
