<svg width="68" height="63" viewBox="0 0 68 63" fill="none" xmlns="http://www.w3.org/2000/svg">
<g clip-path="url(#clip0_13_28)">
<path d="M39.7685 -25.4592C14.2132 -25.9313 -7.95933 -13.6137 -21.131 8.28491C-29.7585 22.8781 -32.7257 41.3884 -29.2137 59.9678C-23.086 92.9293 9.49366 114.97 44.4863 110.015C55.9984 108.369 71.9666 100.755 79.9008 93.2245C97.9909 76.238 106.707 44.7187 99.9892 21.5745C92.0565 -5.70696 67.3956 -24.8384 39.7685 -25.4592ZM63.3143 -6.65213C66.6877 -3.70316 70.6484 1.38435 72.4257 4.62582C77.143 13.8686 79.1912 30.2055 76.668 39.915L74.5925 48.0898L68.4034 45.9865C60.444 43.2169 46.6502 42.8365 35.5337 45.2028C30.6636 46.3586 26.2345 47.0385 25.5374 46.8357C24.4224 46.5113 27.1088 39.876 30.567 34.2225C31.2114 33.0477 34.8683 31.3872 38.5189 30.7843C51.7894 28.288 60.4782 21.2803 63.6853 10.2563C65.8775 2.72082 65.2211 2.37842 51.2192 3.7538C39.5509 4.89994 33.2123 8.5047 29.424 16.3327C26.059 23.2242 27.4761 26.6636 31.6892 21.5323C34.8004 17.594 48.2955 10.1683 49.1436 11.9287C49.4804 12.3293 47.4774 14.0169 44.8778 15.6824C39.7578 18.7335 30.6578 28.1946 27.2584 34.168C24.9254 38.03 22.2721 38.3176 23.4088 34.4103C24.4877 30.1836 22.1743 18.9156 19.4798 15.71C18.033 13.9269 14.8169 11.4778 12.2906 10.2887L7.97659 7.97416L7.61297 12.8631C7.06252 18.9086 8.97371 23.2485 14.5486 28.5028C19.9835 33.7165 22.0348 38.0972 21.5654 43.8639C21.1836 48.2935 20.7838 48.6312 15.1587 49.2651C11.7271 49.629 5.55037 49.0421 1.32943 47.9663L-6.37433 45.8761L-3.13866 33.1954C3.92442 5.28178 18.4492 -12.4392 36.5848 -15.0338C45.9012 -16.4101 55.8523 -13.2123 63.3143 -6.65213ZM73.7527 56.17C73.3873 57.4259 70.4732 58.0921 66.427 57.9741C56.8194 57.7525 51.6295 58.967 37.9023 65.114C22.1376 72.0304 15.1943 73.0379 3.70484 70.4526L-5.65377 68.335L-6.21828 61.9648C-7.20285 51.841 -6.80205 51.5036 2.73636 53.5213C9.54638 55.0484 14.9512 54.6535 30.7756 51.689C53.4437 47.5373 53.4437 47.5373 65.3459 51.3027C72.092 53.568 74.1587 54.7746 73.7527 56.17ZM67.9517 71.4346C63.6766 80.9364 56.4109 90.3264 49.4288 95.1066C33.1827 106.273 11.3413 100.827 0.648873 83.0338L-3.9163 75.3487L6.46422 76.5524C18.5979 77.9637 26.3013 76.4201 41.1894 69.3997C52.2004 64.2788 62.0394 62.1464 67.6541 63.6289C70.8582 64.561 70.7772 64.8394 67.9517 71.4346Z" fill="white"/>
</g>
<defs>
<clipPath id="clip0_13_28">
<path d="M0 28C0 12.536 12.536 0 28 0H58C63.5228 0 68 4.47715 68 10V31C68 48.6731 53.6731 63 36 63H10C4.47715 63 0 58.5228 0 53V28Z" fill="white"/>
</clipPath>
</defs>
</svg>
