<svg width="32" height="32" viewBox="0 0 32 32" fill="none" xmlns="http://www.w3.org/2000/svg">
<g clip-path="url(#clip0_323_2122)">
<path d="M0.683437 15.8086C0.682687 18.4972 1.39069 21.1224 2.73694 23.4363L0.554688 31.3423L8.70869 29.2209C10.964 30.4391 13.4909 31.0775 16.0587 31.0776H16.0654C24.5423 31.0776 31.4427 24.2332 31.4463 15.8206C31.4479 11.7441 29.8494 7.91076 26.9452 5.02679C24.0414 2.14307 20.1796 0.554107 16.0648 0.552246C7.58694 0.552246 0.687063 7.39628 0.683563 15.8086" fill="url(#paint0_linear_323_2122)"/>
<path d="M0.13375 15.8035C0.132875 18.5889 0.86625 21.308 2.2605 23.7048L0 31.8942L8.44637 29.6967C10.7736 30.9558 13.3939 31.6196 16.0601 31.6206H16.067C24.848 31.6206 31.9963 24.53 32 15.8162C32.0015 11.5932 30.3455 7.62208 27.3375 4.63479C24.3291 1.64788 20.3291 0.00173643 16.067 0C7.2845 0 0.13725 7.08961 0.13375 15.8035ZM5.16375 23.292L4.84837 22.7953C3.52262 20.7036 2.82288 18.2865 2.82387 15.8045C2.82675 8.56174 8.76725 2.66915 16.072 2.66915C19.6095 2.67064 22.934 4.03895 25.4345 6.52155C27.9349 9.0044 29.3108 12.3049 29.3099 15.8152C29.3066 23.058 23.366 28.9513 16.067 28.9513H16.0618C13.6851 28.9501 11.3542 28.3168 9.3215 27.12L8.83775 26.8354L3.8255 28.1393L5.16375 23.2919V23.292Z" fill="url(#paint1_linear_323_2122)"/>
<path d="M12.0864 9.19662C11.7882 8.53888 11.4743 8.52561 11.1907 8.51407C10.9584 8.50415 10.6929 8.5049 10.4277 8.5049C10.1622 8.5049 9.73078 8.604 9.36616 8.99904C9.00116 9.39445 7.97266 10.35 7.97266 12.2934C7.97266 14.237 9.39928 16.1152 9.59816 16.379C9.79728 16.6423 12.3523 20.7582 16.3988 22.3415C19.7618 23.6574 20.4462 23.3957 21.176 23.3297C21.906 23.264 23.5315 22.3744 23.8632 21.452C24.195 20.5297 24.195 19.7391 24.0955 19.5739C23.996 19.4093 23.7305 19.3105 23.3324 19.113C22.9342 18.9154 20.9769 17.9598 20.612 17.8279C20.247 17.6962 19.9817 17.6305 19.7162 18.026C19.4507 18.4209 18.6883 19.3105 18.4559 19.5739C18.2238 19.838 17.9914 19.8708 17.5934 19.6733C17.195 19.4751 15.9129 19.0584 14.3918 17.7128C13.2083 16.6658 12.4093 15.3727 12.177 14.9772C11.9448 14.5823 12.1522 14.3682 12.3518 14.1714C12.5307 13.9944 12.75 13.7101 12.9493 13.4795C13.1478 13.2488 13.214 13.0842 13.3468 12.8208C13.4797 12.5571 13.4132 12.3264 13.3138 12.1288C13.214 11.9313 12.4404 9.97764 12.0864 9.19662Z" fill="white"/>
</g>
<defs>
<linearGradient id="paint0_linear_323_2122" x1="1545.14" y1="3079.56" x2="1545.14" y2="0.552246" gradientUnits="userSpaceOnUse">
<stop stop-color="#1FAF38"/>
<stop offset="1" stop-color="#60D669"/>
</linearGradient>
<linearGradient id="paint1_linear_323_2122" x1="1600" y1="3189.42" x2="1600" y2="0" gradientUnits="userSpaceOnUse">
<stop stop-color="#F9F9F9"/>
<stop offset="1" stop-color="white"/>
</linearGradient>
<clipPath id="clip0_323_2122">
<rect width="32" height="32" fill="white"/>
</clipPath>
</defs>
</svg>
