<svg width="122" height="126" viewBox="0 0 122 126" fill="none" xmlns="http://www.w3.org/2000/svg">
<path d="M46.9445 1.91701C24.2775 8.05041 7.87752 24.5837 1.87752 47.2504C-1.98848 62.317 0.144519 79.3837 8.01152 94.8507C21.8775 122.317 56.2775 133.384 85.8775 120.051C95.6115 115.651 107.745 104.851 112.812 96.1837C124.412 76.5837 124.012 46.5837 112.145 27.917C98.1445 5.91701 71.4775 -4.61629 46.9445 1.91701ZM72.5445 12.4504C76.2775 14.1837 81.0775 17.6504 83.4775 20.0504C90.0115 26.9837 96.0115 40.8504 96.2775 50.0504L96.5445 57.7837L90.5445 57.517C82.8115 57.117 70.5445 60.317 61.3445 65.2504C57.3445 67.5167 53.6115 69.2507 52.9445 69.2507C51.8775 69.2507 52.5445 62.717 54.1445 56.8504C54.4115 55.6504 57.2115 53.2504 60.2775 51.7837C71.3445 46.1837 77.2115 37.7837 77.2115 27.2504C77.2115 20.0504 76.5445 19.917 64.5445 24.717C54.5445 28.717 49.8775 33.517 48.5445 41.3837C47.3445 48.317 49.4775 50.9837 51.8775 45.3837C53.6115 41.117 63.6115 31.117 64.8115 32.4504C65.2115 32.717 63.8775 34.717 62.0115 36.8504C58.2775 40.8504 52.6775 51.517 51.2115 57.6504C50.1445 61.6504 47.8775 62.5837 47.8775 58.8504C47.7445 54.8504 42.8115 45.517 39.6115 43.3837C37.8775 42.1837 34.4115 40.8504 31.8775 40.4504L27.4775 39.517L28.4115 43.917C29.4775 49.3837 32.2775 52.717 38.5445 55.917C44.6775 59.117 47.6115 62.4504 48.6775 67.6507C49.4775 71.6507 49.2115 72.0507 44.4115 74.0507C41.4775 75.2507 35.8775 76.3167 31.8775 76.4507L24.5445 76.5837L24.1445 64.5837C23.2115 38.1837 31.4775 18.8504 46.8115 11.917C54.6775 8.31701 64.2775 8.58371 72.5445 12.4504ZM97.8775 65.117C97.8775 66.317 95.4775 67.6507 91.8775 68.5837C83.3445 70.8507 79.0775 73.2507 68.5445 82.1837C56.4115 92.3167 50.5445 94.9837 39.7445 95.6507L30.9445 96.1837L28.8115 90.7167C25.3445 82.0507 25.6115 81.6507 34.5445 80.9837C40.9445 80.5837 45.6115 78.8507 58.8115 72.1837C77.7445 62.717 77.7445 62.717 89.2115 62.9837C95.7445 63.2504 97.8775 63.7837 97.8775 65.117ZM96.6775 80.0507C95.3445 89.5167 91.3445 99.6507 86.4115 105.651C74.9445 119.651 54.2775 120.451 40.2775 107.517L34.2775 101.917L43.7445 100.317C54.8115 98.4507 61.2115 95.1167 72.5445 85.1167C80.9445 77.7837 89.0775 73.3837 94.4115 73.2507C97.4775 73.2507 97.4775 73.5167 96.6775 80.0507Z" fill="#00471B"/>
</svg>
