<svg width="1063" height="191" viewBox="0 0 1063 191" fill="none" xmlns="http://www.w3.org/2000/svg">
<path d="M308.4 35.3333C285.733 41.4667 269.333 58 263.333 80.6667C259.467 95.7333 261.6 112.8 269.467 128.267C283.333 155.733 317.733 166.8 347.333 153.467C357.067 149.067 369.2 138.267 374.267 129.6C385.867 110 385.467 80 373.6 61.3333C359.6 39.3333 332.933 28.8 308.4 35.3333ZM334 45.8667C337.733 47.6 342.533 51.0667 344.933 53.4667C351.467 60.4 357.467 74.2667 357.733 83.4667L358 91.2L352 90.9333C344.267 90.5333 332 93.7333 322.8 98.6667C318.8 100.933 315.067 102.667 314.4 102.667C313.333 102.667 314 96.1333 315.6 90.2667C315.867 89.0667 318.667 86.6667 321.733 85.2C332.8 79.6 338.667 71.2 338.667 60.6667C338.667 53.4667 338 53.3333 326 58.1333C316 62.1333 311.333 66.9333 310 74.8C308.8 81.7333 310.933 84.4 313.333 78.8C315.067 74.5333 325.067 64.5333 326.267 65.8667C326.667 66.1333 325.333 68.1333 323.467 70.2667C319.733 74.2667 314.133 84.9333 312.667 91.0667C311.6 95.0667 309.333 96 309.333 92.2667C309.2 88.2667 304.267 78.9333 301.067 76.8C299.333 75.6 295.867 74.2667 293.333 73.8667L288.933 72.9333L289.867 77.3333C290.933 82.8 293.733 86.1333 300 89.3333C306.133 92.5333 309.067 95.8667 310.133 101.067C310.933 105.067 310.667 105.467 305.867 107.467C302.933 108.667 297.333 109.733 293.333 109.867L286 110L285.6 98C284.667 71.6 292.933 52.2667 308.267 45.3333C316.133 41.7333 325.733 42 334 45.8667ZM359.333 98.5333C359.333 99.7333 356.933 101.067 353.333 102C344.8 104.267 340.533 106.667 330 115.6C317.867 125.733 312 128.4 301.2 129.067L292.4 129.6L290.267 124.133C286.8 115.467 287.067 115.067 296 114.4C302.4 114 307.067 112.267 320.267 105.6C339.2 96.1333 339.2 96.1333 350.667 96.4C357.2 96.6667 359.333 97.2 359.333 98.5333ZM358.133 113.467C356.8 122.933 352.8 133.067 347.867 139.067C336.4 153.067 315.733 153.867 301.733 140.933L295.733 135.333L305.2 133.733C316.267 131.867 322.667 128.533 334 118.533C342.4 111.2 350.533 106.8 355.867 106.667C358.933 106.667 358.933 106.933 358.133 113.467Z" fill="#00471B"/>
<path d="M968.667 36.2666C968.4 37.2 967.867 40.2666 967.333 43.2C966.533 48.2666 934.267 134.4 929.2 144.933C927.467 148.4 925.067 151.2 922.533 152.267C920.4 153.2 918.667 154.8 918.667 155.6C918.667 156.933 923.2 157.333 937.333 157.333C956 157.333 960 156.267 951.467 153.333C943.6 150.8 942 141.6 946.667 126.133L949.467 117.333H972.533H995.6L998.4 124.933C1005.6 145.067 1005.2 150.8 996 153.467C993.067 154.4 990.667 155.6 990.667 156.267C990.667 156.8 1001.47 157.333 1014.67 157.333C1028.8 157.333 1038.67 156.8 1038.67 156.133C1038.67 155.333 1037.07 154 1035.07 153.067C1033.07 152.133 1030 148.8 1028.27 145.6C1025.47 140.667 1007.2 92.8 991.2 49.0666L986 34.6666H977.6C972.133 34.6666 969.067 35.2 968.667 36.2666ZM974.667 58.8C974.667 59.6 978.267 70.4 982.667 82.9333C987.067 95.3333 990.667 106.4 990.667 107.467C990.667 108.933 987.333 109.333 972.667 109.333C962.8 109.333 954.667 108.933 954.667 108.267C954.533 105.733 972.8 56.4 973.733 56.9333C974.267 57.2 974.667 58.1333 974.667 58.8Z" fill="#00471B"/>
<path d="M13.3334 37.2C13.3334 38 14.4 38.6667 15.7334 38.6667C18.6667 38.8 21.7334 41.2 23.7334 44.9333C26 49.0667 26 143.867 23.7334 148.533C22.9334 150.533 20.2667 152.667 17.7334 153.6C15.3334 154.533 13.3334 155.733 13.3334 156.4C13.3334 156.933 29.0667 157.333 48.4 157.067L83.3334 156.667L91.7334 152.8C105.2 146.533 112.4 136.4 112.4 123.2C112.4 109.333 103.333 98.4 88.4 94.2667C85.2 93.4667 82.6667 92.1333 82.6667 91.3333C82.6667 90.6667 85.3334 88.9333 88.5334 87.6C96.2667 84.4 104.933 75.0667 106.133 68.6667C108.533 55.6 103.333 44.6667 92.1334 39.4667C86.4 36.8 83.4667 36.6667 49.7334 36.2667C24.6667 36 13.3334 36.2667 13.3334 37.2ZM74.6667 46.9333C82 50.6667 85.3334 56.6667 85.3334 66C85.3334 80.6667 76.9334 87.4667 56.8 88.9333L45.3334 89.7333V66.8V44H57.0667C66.5334 44 69.8667 44.5333 74.6667 46.9333ZM69.3334 98.8C81.8667 101.467 89.3334 110.933 89.3334 124C89.3334 140.8 79.2 149.333 59.0667 149.333C45.6 149.333 45.3334 148.933 45.3334 120.667V97.3333H54C58.6667 97.3333 65.6 98 69.3334 98.8Z" fill="#00471B"/>
<path d="M126.667 37.3333C126.667 38 127.867 38.6666 129.333 38.6666C130.933 38.6666 133.6 40.1333 135.333 42L138.667 45.2V96.2666C138.667 152.4 138.667 152.267 130.667 154C121.067 156.133 128 157.333 149.333 157.333C170.667 157.333 177.6 156.133 168 154C160.4 152.267 159.333 148.8 158.933 122.4L158.4 98.6666H187.333H216.267L215.733 123.467L215.333 148.267L211.6 151.467C209.6 153.2 206.933 154.667 205.867 154.667C204.8 154.667 204 155.2 204 156C204 156.8 212.267 157.333 226 157.333C247.867 157.333 252.4 156.267 243.467 153.333C240.933 152.533 238.4 150.533 237.467 148.533C235.467 143.867 235.333 51.4666 237.467 45.3333C238.533 42.4 240.4 40.4 243.467 39.2C246 38.1333 248 37.0666 248 36.6666C248 36.2666 238.133 36 226 36C212.267 36 204 36.5333 204 37.3333C204 38 204.8 38.6666 205.867 38.6666C206.933 38.6666 209.6 40.1333 211.6 41.8666L215.333 45.0666L215.733 67.8666L216.267 90.6666H187.333H158.4L158.933 68.9333C159.467 44.9333 160.267 42.2666 167.467 39.2C170 38.1333 172 37.0666 172 36.6666C172 36.2666 161.867 36 149.333 36C135.067 36 126.667 36.5333 126.667 37.3333Z" fill="#00471B"/>
<path d="M385.333 36.9333C385.467 37.6 387.333 39.2 389.733 40.6666C392 42.1333 395.2 45.6 396.8 48.5333C398.4 51.3333 408 76.9333 418.133 105.467L436.533 157.333H442.8H448.933L460.934 124.933C467.6 107.2 473.867 90.4 474.8 87.6C475.734 84.9333 477.2 82.6666 478 82.6666C478.8 82.6666 485.067 99.4666 492 120L504.667 157.333H510.667H516.8L537.2 104C548.534 74.8 558.8 48.9333 560.267 46.6666C561.6 44.4 564.534 41.4666 566.667 40.2666C568.8 39.0666 570.667 37.6 570.667 36.9333C570.667 36.4 562.267 36 552 36C533.6 36 529.2 37.0666 537.6 39.4666C548.534 42.6666 547.6 51.4666 531.734 95.0666C520.134 126.933 517.867 131.867 515.867 129.6C513.6 127.067 489.334 50.6666 489.334 46.2666C489.334 41.7333 489.867 40.9333 493.334 39.6C495.6 38.8 497.334 37.6 497.334 37.0666C497.334 36.5333 487.734 36 476 36C462.667 36 454.667 36.5333 454.667 37.3333C454.667 38 455.467 38.6666 456.533 38.6666C461.2 38.6666 466.267 45.3333 470.134 56.6666L474 68.1333L469.734 79.7333C467.467 86.1333 462.4 100.133 458.4 110.933C453.6 124.4 450.667 130.667 449.333 130.667C447.867 130.667 443.467 118.933 433.333 88.8C421.2 52 419.6 46.5333 421.067 43.4666C421.867 41.6 424.133 39.7333 426 39.2C434.267 37.2 427.733 36 407.333 36C395.2 36 385.333 36.4 385.333 36.9333Z" fill="#00471B"/>
<path d="M580 37.2C580 37.8667 581.467 38.8 583.333 39.2C585.2 39.7333 587.6 41.6 588.8 43.3333C590.8 46.5333 590.8 50.1333 588.133 95.3333C586.667 122 584.8 145.333 584 147.333C583.333 149.2 580.667 151.733 578 152.933C575.467 154.133 573.333 155.6 573.333 156.267C573.333 156.8 581.467 157.333 591.333 157.333C601.2 157.333 609.333 156.8 609.333 156.267C609.333 155.6 606.933 154.133 604.133 153.067C595.867 149.733 595.333 146.4 597.2 107.067C598 88.9333 598.667 71.7333 598.667 68.9333C598.667 56 602.8 64.8 636.8 148.267C640 156.133 640.933 157.333 643.867 157.333C647.6 157.333 645.867 161.333 673.734 92.6667C683.467 68.5333 686.267 63.0667 687.734 64.6667C688.534 65.4667 691.867 123.067 692 136.267C692 149.067 690.4 152.4 683.334 154.133C675.067 156.133 681.734 157.333 702 157.333C714.134 157.333 724 156.8 724 156.267C724 155.6 721.867 154.133 719.334 152.933C715.867 151.333 714.534 149.6 713.467 145.733C712.134 140.267 708 72.8 708 55.0667C708 43.4667 708 43.4667 716.8 37.7333C718.8 36.4 716.4 36.1333 704.134 36.4L688.934 36.6667L675.067 69.3333C667.467 87.3333 659.067 107.2 656.4 113.733C653.734 120.133 650.934 125.333 650.134 125.333C648.8 125.333 615.733 46.5333 613.733 38.8C613.067 36.1333 612 36 596.533 36C587.467 36 580 36.5333 580 37.2Z" fill="#00471B"/>
<path d="M740 37.3333C740 38 741.067 38.6666 742.4 38.6666C743.733 38.6666 746.267 40.2666 748.133 42.1333L751.333 45.6V96.6666C751.333 144.267 751.2 147.867 748.933 150.4C747.6 151.867 745.067 153.467 743.2 153.867C741.467 154.4 740 155.333 740 156C740 156.8 748.533 157.333 762 157.333C774.133 157.333 784 156.8 784 156.267C784 155.733 781.867 154.4 779.2 153.467C776.4 152.4 774 150.533 773.2 148.4C771.467 143.867 771.6 49.2 773.333 44.6666C774.133 42.6666 776.4 40.4 778.667 39.6C780.933 38.8 782.667 37.6 782.667 37.0666C782.667 36.5333 773.067 36 761.333 36C748 36 740 36.5333 740 37.3333Z" fill="#00471B"/>
<path d="M798.667 37.3333C798.667 38 799.867 38.6666 801.333 38.6666C802.933 38.6666 805.6 40.1333 807.333 42L810.667 45.2V96.6666C810.667 146 810.533 148.133 808 150.667C806.533 152.133 803.867 153.6 802 154.133C793.733 156.267 800.4 157.333 821.333 157.333C842.667 157.333 849.6 156.133 840 154C833.2 152.533 832 148.933 831.067 129.067L830.267 111.067L835.333 105.6C838 102.533 841.333 100 842.533 100C843.867 100.133 849.467 107.867 857.333 120.667C864.267 132 872.267 144.933 875.067 149.333L880 157.333H895.333C910.933 157.333 913.733 156.267 907.067 153.067C903.2 151.2 856.133 90.1333 856 86.8C856 84.5333 859.467 80.2666 878 60.6666C889.067 48.8 894.667 43.8666 899.867 41.4666C903.6 39.6 906.667 37.7333 906.667 37.0666C906.667 36.5333 898.533 36 888.667 36C878.8 36 870.667 36.4 870.667 36.8C870.667 37.2 872 38.6666 873.467 39.8666C879.2 44.5333 876.4 49.6 855.2 73.7333C844.533 85.8666 834.933 96.1333 833.867 96.5333C832.267 97.2 832 93.3333 832 71.2C832 45.3333 832 45.2 835.333 42C837.067 40.1333 839.733 38.6666 841.333 38.6666C842.8 38.6666 844 38 844 37.3333C844 36.5333 835.6 36 821.333 36C807.067 36 798.667 36.5333 798.667 37.3333Z" fill="#00471B"/>
</svg>
